<?xml version="1.0" standalone="no"?><!DOCTYPE svg PUBLIC "-//W3C//DTD SVG 1.1//EN" "http://www.w3.org/Graphics/SVG/1.1/DTD/svg11.dtd"><svg t="1566454648060" class="icon" viewBox="0 0 1024 1024" version="1.1" xmlns="http://www.w3.org/2000/svg" p-id="1108" xmlns:xlink="http://www.w3.org/1999/xlink" width="200" height="200"><defs><style type="text/css"></style></defs><path d="M192 384h640a42.666667 42.666667 0 0 1 42.666667 42.666667v362.666666a42.666667 42.666667 0 0 1-42.666667 42.666667H192v106.666667a21.333333 21.333333 0 0 0 21.333333 21.333333h725.333334a21.333333 21.333333 0 0 0 21.333333-21.333333V308.821333L949.909333 298.666667h-126.528A98.048 98.048 0 0 1 725.333333 200.618667V72.661333L716.714667 64H213.333333a21.333333 21.333333 0 0 0-21.333333 21.333333v298.666667zM128 832H42.666667a42.666667 42.666667 0 0 1-42.666667-42.666667V426.666667a42.666667 42.666667 0 0 1 42.666667-42.666667h85.333333V85.333333a85.333333 85.333333 0 0 1 85.333333-85.333333h530.026667L1024 282.453333V938.666667a85.333333 85.333333 0 0 1-85.333333 85.333333H213.333333a85.333333 85.333333 0 0 1-85.333333-85.333333v-106.666667zM85.333333 472.490667V746.666667h110.762667c25.664 0 45.930667-5.376 60.096-16.128 16.554667-13.056 25.002667-33.408 25.002667-61.056 0-18.432-4.053333-33.408-11.818667-44.16-8.106667-11.136-19.925333-18.432-35.797333-21.888 12.16-5.376 21.269333-12.672 27.690666-22.656 6.4-10.752 9.792-23.808 9.792-39.168 0-20.736-6.421333-37.248-18.922666-49.536-13.504-13.056-32.426667-19.584-56.384-19.584H85.333333z m39.509334 36.864h61.12c16.213333 0 27.690667 3.072 35.114666 9.216 6.762667 5.76 10.453333 15.36 10.453334 28.416 0 14.208-3.690667 24.576-10.453334 31.104-7.082667 6.144-18.901333 9.6-35.797333 9.6H124.842667v-78.336z m0 115.2H191.36c17.557333 0 30.4 3.456 38.506667 10.368 7.765333 6.912 11.818667 18.048 11.818666 33.792 0 15.36-5.418667 26.112-16.213333 33.024-8.448 5.376-20.266667 8.064-35.114667 8.064H124.842667v-85.248z m193.493333-152.064V746.666667h39.509333v-188.928h1.344L430.101333 746.666667h34.112l70.912-188.928h1.344V746.666667H576V472.490667h-46.250667L448 687.530667h-1.344l-82.069333-215.04h-46.250667z m304.917333 0V746.666667h39.509334v-105.216h59.776c58.752 0 88.128-28.416 88.128-84.864 0-56.064-29.376-84.096-87.466667-84.096h-99.946667z m39.509334 38.4h57.386666c17.237333 0 30.08 3.456 38.186667 10.752 8.106667 6.912 12.48 18.432 12.48 34.944 0 16.512-4.053333 28.416-12.16 35.712-8.106667 6.912-20.928 10.752-38.485333 10.752h-57.408v-92.16z" fill="#C9BE18" p-id="1109"></path></svg>